<?xml version="1.0" encoding="UTF-8"?><svg xmlns="http://www.w3.org/2000/svg" xmlns:xlink="http://www.w3.org/1999/xlink" width="375pt" zoomAndPan="magnify" viewBox="0 0 375 374.999991" height="374.999991pt" preserveAspectRatio="xMidYMid meet" version="1.2"><defs><g/></defs><g xml:id="surface1" id="surface1"><rect x="0" width="375" y="0" height="374.999991" style="fill:rgb(100%,100%,100%);fill-opacity:1;stroke:none;"/><rect x="0" width="375" y="0" height="374.999991" style="fill:rgb(100%,100%,100%);fill-opacity:1;stroke:none;"/><rect x="0" width="375" y="0" height="374.999991" style="fill:rgb(100%,100%,100%);fill-opacity:1;stroke:none;"/><g style="fill:rgb(0%,0%,0%);fill-opacity:1;"><g transform="translate(34.33581, 195.162531)"><path style="stroke:none;" d="M 23.421875 -27.128906 C 19.308594 -27.128906 14.324219 -23.585938 14.324219 -20.644531 C 14.324219 -19.074219 15.582031 -17.902344 17.609375 -17.5 C 8.621094 -13.867188 0.476562 -6.613281 0.476562 -1.261719 C 0.476562 2.121094 2.539062 3.855469 6.523438 3.855469 C 12.238281 3.855469 20.480469 -1.460938 25.59375 -6.175781 C 25.722656 -6.304688 25.796875 -6.46875 25.796875 -6.648438 C 25.796875 -6.996094 25.484375 -7.308594 25.136719 -7.308594 C 24.972656 -7.308594 24.828125 -7.253906 24.679688 -7.144531 C 19.675781 -2.519531 11.839844 2.539062 6.523438 2.539062 C 3.25 2.539062 1.789062 1.371094 1.789062 -1.261719 C 1.789062 -6.632812 11.949219 -14.871094 22.015625 -17.628906 L 21.996094 -17.628906 C 22.671875 -17.738281 23.328125 -17.886719 23.96875 -18.050781 C 24.351562 -18.175781 24.535156 -18.488281 24.445312 -18.855469 C 24.335938 -19.273438 24.058594 -19.457031 23.660156 -19.382812 C 23 -19.253906 22.324219 -19.089844 21.667969 -18.910156 L 21.683594 -18.910156 C 20.773438 -18.761719 19.96875 -18.6875 19.164062 -18.6875 C 17.0625 -18.6875 15.636719 -19.492188 15.636719 -20.644531 C 15.636719 -22.816406 20.132812 -25.8125 23.421875 -25.8125 C 24.554688 -25.8125 25.230469 -24.882812 25.246094 -23.328125 C 25.246094 -22.964844 25.539062 -22.671875 25.90625 -22.671875 C 26.253906 -22.671875 26.5625 -22.980469 26.5625 -23.328125 C 26.527344 -25.632812 25.285156 -27.128906 23.421875 -27.128906 Z M 23.421875 -27.128906 "/></g></g><g style="fill:rgb(0%,0%,0%);fill-opacity:1;"><g transform="translate(57.792425, 195.162531)"><path style="stroke:none;" d="M 28.042969 -7.417969 C 27.933594 -7.417969 27.824219 -7.378906 27.695312 -7.324219 C 23.421875 -4.566406 15.511719 -0.730469 11.929688 -0.730469 C 10.796875 -0.730469 10.304688 -1.113281 10.304688 -1.972656 C 10.304688 -2.648438 10.652344 -3.507812 11.035156 -4.496094 C 11.417969 -5.460938 11.855469 -6.523438 11.855469 -7.398438 C 11.855469 -8.238281 11.34375 -8.789062 10.523438 -8.789062 C 8.789062 -8.789062 5.570312 -6.539062 0.640625 -1.882812 C -0.804688 -0.511719 -2.175781 0.820312 -3.234375 1.863281 C -3.488281 2.121094 -3.671875 2.101562 -3.417969 1.71875 C -2.246094 -0.199219 -0.253906 -2.941406 2.410156 -6.320312 C 20.113281 -17.5 36.773438 -36.375 36.773438 -40.648438 C 36.773438 -41.617188 36.191406 -42.164062 35.167969 -42.164062 C 30.492188 -42.164062 -5.902344 -0.96875 -5.902344 4.292969 C -5.902344 4.769531 -5.535156 5.132812 -5.058594 5.132812 C -4.675781 5.132812 -4.3125 4.785156 -2.320312 2.796875 C -2.101562 2.574219 -1.863281 2.355469 -1.609375 2.121094 C -0.675781 1.207031 0.402344 0.164062 1.554688 -0.933594 C 5.570312 -4.730469 8.621094 -7.050781 10.15625 -7.417969 C 10.394531 -7.472656 10.542969 -7.324219 10.503906 -7.070312 C 10.414062 -6.46875 10.140625 -5.773438 9.828125 -5.003906 C 9.445312 -4.019531 8.988281 -2.90625 8.988281 -1.972656 C 8.988281 -0.367188 10.085938 0.585938 11.929688 0.585938 C 15.800781 0.585938 24.042969 -3.398438 28.40625 -6.210938 C 28.589844 -6.339844 28.699219 -6.539062 28.699219 -6.757812 C 28.699219 -7.105469 28.390625 -7.417969 28.042969 -7.417969 Z M 35.167969 -40.847656 C 35.386719 -40.847656 35.460938 -40.777344 35.460938 -40.59375 C 35.460938 -37.140625 21.285156 -20.863281 5.097656 -9.664062 C 17.539062 -24.902344 32.902344 -40.847656 35.167969 -40.847656 Z M 35.167969 -40.847656 "/></g></g><g style="fill:rgb(0%,0%,0%);fill-opacity:1;"><g transform="translate(83.952757, 195.162531)"><path style="stroke:none;" d="M 23.621094 -7.417969 C 23.53125 -7.417969 23.457031 -7.398438 23.402344 -7.378906 C 20.917969 -6.539062 17.996094 -5.699219 15.125 -4.859375 C 12.84375 -4.21875 10.597656 -3.542969 8.679688 -2.941406 C 8.714844 -3.070312 8.734375 -3.214844 8.75 -3.324219 C 8.824219 -4.148438 8.183594 -4.621094 7.070312 -4.621094 C 6.394531 -4.621094 5.480469 -4.476562 4.605469 -4.328125 C 3.652344 -4.164062 2.742188 -4.019531 2.007812 -4.019531 C 1.371094 -4.019531 1.152344 -4.109375 1.152344 -4.382812 C 1.152344 -5.992188 5.425781 -9.226562 7.746094 -9.226562 C 7.945312 -9.226562 8.113281 -9.171875 8.113281 -9.023438 C 8.113281 -8.550781 7.472656 -7.671875 6.851562 -7.308594 C 6.648438 -7.199219 6.523438 -6.980469 6.523438 -6.742188 C 6.523438 -6.375 6.8125 -6.082031 7.179688 -6.082031 C 7.289062 -6.082031 7.417969 -6.121094 7.527344 -6.175781 C 8.347656 -6.667969 9.132812 -7.726562 9.390625 -8.714844 C 9.410156 -8.804688 9.425781 -8.96875 9.425781 -9.097656 C 9.425781 -9.976562 8.769531 -10.542969 7.746094 -10.542969 C 4.640625 -10.542969 -0.164062 -6.742188 -0.164062 -4.257812 C -0.164062 -3.25 0.621094 -2.703125 2.007812 -2.703125 C 2.832031 -2.703125 3.871094 -2.867188 4.824219 -3.03125 C 6.027344 -3.234375 7.324219 -3.542969 7.472656 -3.289062 C 7.546875 -3.160156 7.308594 -2.777344 7.070312 -2.429688 L 6.960938 -2.355469 C 1.625 -0.492188 -1.953125 1.535156 -1.953125 2.90625 C -1.953125 3.671875 -1.351562 4.148438 -0.347656 4.148438 C 2.449219 4.148438 6.082031 1.1875 7.78125 -1.207031 C 7.800781 -1.242188 7.835938 -1.261719 7.890625 -1.296875 C 10.046875 -2.007812 12.714844 -2.777344 15.492188 -3.597656 C 18.359375 -4.4375 21.320312 -5.296875 23.824219 -6.136719 C 24.097656 -6.210938 24.28125 -6.46875 24.28125 -6.757812 C 24.28125 -7.125 23.988281 -7.417969 23.621094 -7.417969 Z M -0.0898438 2.832031 C -0.273438 2.832031 -0.367188 2.777344 -0.367188 2.703125 C -0.367188 2.613281 -0.273438 2.503906 -0.128906 2.410156 C 0.859375 1.71875 3.140625 0.546875 5.480469 -0.421875 C 3.542969 1.535156 1.261719 2.832031 -0.0898438 2.832031 Z M -0.0898438 2.832031 "/></g></g><g style="fill:rgb(0%,0%,0%);fill-opacity:1;"><g transform="translate(105.728678, 195.162531)"><path style="stroke:none;" d="M 26.015625 -7.417969 C 25.867188 -7.417969 25.742188 -7.378906 25.632812 -7.289062 C 20.992188 -3.816406 13.703125 -1.078125 11.144531 -1.078125 C 9.828125 -1.078125 9.300781 -1.460938 9.300781 -2.394531 C 9.300781 -3.929688 10.597656 -5.828125 11.5625 -7.214844 C 12.148438 -8.054688 12.515625 -8.605469 12.515625 -9.023438 C 12.515625 -9.464844 12.167969 -9.792969 11.730469 -9.792969 C 11.328125 -9.792969 10.707031 -9.410156 8.640625 -7.910156 C 8.148438 -8.714844 7.492188 -9.042969 6.320312 -9.042969 C 3.433594 -9.042969 -4.164062 -4.292969 -4.164062 -1.386719 C -4.164062 -0.492188 -3.507812 0.0898438 -2.503906 0.0898438 C -0.128906 0.0898438 5.097656 -3.726562 8.585938 -6.246094 C 8.84375 -6.429688 9.097656 -6.613281 9.335938 -6.796875 C 9.628906 -7.015625 9.753906 -6.886719 9.574219 -6.578125 C 8.75 -5.261719 7.984375 -3.78125 7.984375 -2.394531 C 7.984375 -0.695312 9.097656 0.238281 11.144531 0.238281 C 14.105469 0.238281 21.757812 -2.90625 26.378906 -6.210938 C 26.5625 -6.339844 26.671875 -6.539062 26.671875 -6.757812 C 26.671875 -7.105469 26.363281 -7.417969 26.015625 -7.417969 Z M 7.5625 -7.144531 C 2.976562 -3.816406 -0.75 -1.222656 -2.503906 -1.222656 C -2.722656 -1.222656 -2.851562 -1.316406 -2.851562 -1.535156 C -2.851562 -3.234375 3.597656 -7.726562 6.320312 -7.726562 C 7.070312 -7.726562 7.289062 -7.617188 7.5625 -7.144531 Z M 7.5625 -7.144531 "/></g></g><g style="fill:rgb(0%,0%,0%);fill-opacity:1;"><g transform="translate(129.879492, 195.162531)"><path style="stroke:none;" d="M -2.320312 0.144531 C -2.0625 0.144531 -1.679688 -0.0742188 -0.621094 -0.859375 C -0.476562 -0.96875 -0.3125 -1.078125 -0.144531 -1.207031 C 3.070312 -3.527344 9.589844 -8.222656 12.058594 -8.222656 C 12.257812 -8.222656 12.351562 -8.09375 12.351562 -7.929688 C 12.351562 -7.601562 12.058594 -6.375 11.765625 -5.152344 C 11.507812 -4.074219 11.253906 -2.996094 11.253906 -2.484375 C 11.253906 -1.371094 12.019531 -0.695312 13.28125 -0.695312 C 16.3125 -0.695312 21.519531 -2.832031 26.65625 -6.210938 C 26.855469 -6.320312 26.964844 -6.539062 26.964844 -6.757812 C 26.964844 -7.125 26.671875 -7.417969 26.308594 -7.417969 C 26.179688 -7.417969 26.050781 -7.378906 25.941406 -7.308594 C 21.046875 -4.09375 16.039062 -2.007812 13.28125 -2.007812 C 12.734375 -2.007812 12.570312 -2.136719 12.570312 -2.484375 C 12.570312 -2.851562 12.789062 -3.78125 13.042969 -4.839844 C 13.335938 -6.066406 13.664062 -7.433594 13.664062 -8.183594 C 13.664062 -9.023438 13.082031 -9.535156 12.128906 -9.535156 C 10.066406 -9.535156 6.359375 -7.492188 -0.0898438 -2.867188 C -0.367188 -2.683594 -0.4375 -2.832031 -0.292969 -3.03125 C 1.261719 -5.171875 4.75 -9.28125 8.054688 -11.765625 C 8.222656 -11.894531 8.3125 -12.09375 8.3125 -12.296875 C 8.3125 -12.660156 8.019531 -12.953125 7.65625 -12.953125 C 7.507812 -12.953125 7.363281 -12.898438 7.253906 -12.824219 C 2.429688 -9.152344 -2.886719 -2.046875 -3.125 -0.914062 C -3.25 -0.328125 -2.886719 0.144531 -2.320312 0.144531 Z M -2.320312 0.144531 "/></g></g><g style="fill:rgb(0%,0%,0%);fill-opacity:1;"><g transform="translate(154.304335, 195.162531)"><path style="stroke:none;" d="M 37.835938 -7.417969 C 37.671875 -7.417969 37.523438 -7.363281 37.398438 -7.253906 C 34.492188 -4.695312 25.703125 1.480469 20.371094 1.480469 C 17.792969 1.480469 16.078125 -1.554688 14.304688 -4.675781 C 14.230469 -4.804688 14.175781 -4.914062 14.105469 -5.023438 C 13.882812 -5.460938 13.628906 -5.882812 13.390625 -6.285156 C 25.667969 -6.613281 36.355469 -15.382812 36.355469 -22.761719 C 36.355469 -26.324219 33.632812 -28.425781 29.046875 -28.425781 C 20.261719 -28.425781 8.75 -22.542969 3.800781 -15.511719 C 3.707031 -15.402344 3.671875 -15.273438 3.671875 -15.125 C 3.671875 -14.761719 3.964844 -14.46875 4.328125 -14.46875 C 4.550781 -14.46875 4.75 -14.578125 4.878906 -14.761719 C 9.589844 -21.449219 20.679688 -27.109375 29.046875 -27.109375 C 33.046875 -27.109375 35.039062 -25.648438 35.039062 -22.761719 C 35.039062 -15.859375 24.808594 -7.601562 12.714844 -7.601562 L 12.585938 -7.601562 C 12.550781 -7.601562 12.550781 -7.601562 12.515625 -7.636719 C 12.257812 -8.019531 11.964844 -8.386719 11.675781 -8.714844 C 11.65625 -8.75 11.636719 -8.734375 11.65625 -8.75 C 14.945312 -12.789062 18.835938 -16.933594 22.359375 -19.914062 C 22.507812 -20.042969 22.597656 -20.222656 22.597656 -20.425781 C 22.597656 -20.789062 22.304688 -21.082031 21.941406 -21.082031 C 21.777344 -21.082031 21.628906 -21.027344 21.519531 -20.917969 C 17.921875 -17.867188 13.976562 -13.703125 10.667969 -9.628906 C 10.085938 -10.066406 9.464844 -10.285156 8.804688 -10.285156 C 8 -10.285156 7.398438 -9.753906 7.398438 -9.042969 C 7.398438 -8.402344 7.910156 -7.746094 8.789062 -7.234375 C 4.148438 -1.132812 1.808594 2.683594 1.425781 4.804688 C 1.351562 5.242188 1.316406 5.460938 1.316406 5.644531 L 1.332031 5.773438 C 1.386719 6.304688 1.84375 6.613281 2.320312 6.429688 C 2.722656 6.304688 2.996094 5.71875 3.195312 4.621094 C 3.25 4.3125 3.195312 4.074219 3.015625 3.964844 C 3.855469 1.828125 6.027344 -1.480469 10.03125 -6.6875 L 10.046875 -6.703125 L 10.066406 -6.703125 C 10.542969 -6.539062 11.109375 -6.429688 11.746094 -6.339844 C 11.800781 -6.339844 11.839844 -6.320312 11.855469 -6.285156 C 12.257812 -5.609375 12.695312 -4.839844 13.152344 -4.039062 C 14.925781 -0.914062 17.027344 2.796875 20.371094 2.796875 C 26.105469 2.796875 35.296875 -3.671875 38.273438 -6.265625 C 38.402344 -6.394531 38.492188 -6.578125 38.492188 -6.757812 C 38.492188 -7.125 38.199219 -7.417969 37.835938 -7.417969 Z M 9.628906 -8.3125 C 9.609375 -8.292969 9.628906 -8.292969 9.589844 -8.3125 C 9.117188 -8.550781 8.804688 -8.789062 8.734375 -8.96875 L 8.804688 -8.96875 C 9.152344 -8.96875 9.519531 -8.859375 9.863281 -8.621094 Z M 10.832031 -7.746094 C 10.851562 -7.78125 10.886719 -7.835938 10.90625 -7.835938 C 10.90625 -7.820312 10.886719 -7.78125 10.871094 -7.765625 C 10.851562 -7.746094 10.851562 -7.746094 10.832031 -7.746094 Z M 10.832031 -7.746094 "/></g></g><g style="fill:rgb(0%,0%,0%);fill-opacity:1;"><g transform="translate(190.256521, 195.162531)"><path style="stroke:none;" d="M 18.855469 -7.417969 C 18.707031 -7.417969 18.578125 -7.378906 18.46875 -7.289062 C 12.789062 -3.140625 5.132812 -0.894531 2.757812 -0.894531 C 0.914062 -0.894531 0 -1.386719 0 -2.300781 C 0 -3.195312 0.65625 -4.457031 1.753906 -5.664062 C 2.300781 -5.425781 2.90625 -5.335938 3.78125 -5.335938 C 5.460938 -5.335938 7.398438 -6.6875 7.398438 -7.890625 C 7.398438 -8.769531 6.722656 -9.355469 5.699219 -9.355469 C 2.851562 -9.355469 -1.316406 -5.171875 -1.316406 -2.300781 C -1.316406 -0.566406 0.164062 0.421875 2.757812 0.421875 C 5.316406 0.421875 13.371094 -1.9375 19.238281 -6.230469 C 19.402344 -6.339844 19.511719 -6.558594 19.511719 -6.757812 C 19.511719 -7.125 19.21875 -7.417969 18.855469 -7.417969 Z M 6.082031 -7.890625 C 6.082031 -7.492188 5.152344 -6.648438 3.78125 -6.648438 C 3.398438 -6.648438 3.105469 -6.667969 2.851562 -6.703125 C 3.890625 -7.546875 4.933594 -8.039062 5.699219 -8.039062 C 6.027344 -8.039062 6.082031 -7.984375 6.082031 -7.890625 Z M 6.082031 -7.890625 "/></g></g><g style="fill:rgb(0%,0%,0%);fill-opacity:1;"><g transform="translate(207.246119, 195.162531)"><path style="stroke:none;" d="M 11.015625 2.832031 C 11.363281 2.832031 11.675781 2.519531 11.675781 2.175781 C 11.675781 1.9375 11.546875 1.71875 11.34375 1.589844 C 8.09375 -0.273438 3.472656 0.0195312 0.96875 0.183594 C 0.621094 0.199219 0.367188 0.199219 0.183594 0.199219 C -0.0195312 0.199219 -0.0351562 0.128906 0.109375 0.0351562 C 0.933594 -0.546875 2.59375 -1.441406 5.644531 -2.960938 C 11.691406 -5.957031 13.410156 -7.105469 13.628906 -8.3125 C 13.828125 -9.480469 13.007812 -10.066406 11.234375 -10.066406 C 9.882812 -10.066406 4.53125 -9.628906 1.277344 -7.105469 C 1.113281 -6.980469 1.023438 -6.777344 1.023438 -6.578125 C 1.023438 -6.230469 1.332031 -5.917969 1.679688 -5.917969 C 1.828125 -5.917969 1.992188 -5.972656 2.101562 -6.066406 C 5.042969 -8.347656 9.921875 -8.75 11.234375 -8.75 C 12.183594 -8.75 12.351562 -8.679688 12.3125 -8.550781 C 12.222656 -7.929688 10.066406 -6.613281 5.078125 -4.148438 C 0.0898438 -1.664062 -1.332031 -0.785156 -1.753906 0.0898438 C -2.191406 0.914062 -1.554688 1.554688 -0.328125 1.554688 C -0.0351562 1.554688 0.367188 1.535156 0.804688 1.5 C 0.894531 1.5 0.96875 1.480469 1.058594 1.480469 C 3.582031 1.332031 7.78125 1.058594 10.6875 2.742188 L 10.667969 2.722656 C 10.777344 2.796875 10.871094 2.832031 11.015625 2.832031 Z M 11.015625 2.832031 "/></g></g><g style="fill:rgb(0%,0%,0%);fill-opacity:1;"><g transform="translate(227.450963, 195.162531)"><path style="stroke:none;" d="M 26.015625 -7.417969 C 25.867188 -7.417969 25.742188 -7.378906 25.632812 -7.289062 C 20.992188 -3.816406 13.703125 -1.078125 11.144531 -1.078125 C 9.828125 -1.078125 9.300781 -1.460938 9.300781 -2.394531 C 9.300781 -3.929688 10.597656 -5.828125 11.5625 -7.214844 C 12.148438 -8.054688 12.515625 -8.605469 12.515625 -9.023438 C 12.515625 -9.464844 12.167969 -9.792969 11.730469 -9.792969 C 11.328125 -9.792969 10.707031 -9.410156 8.640625 -7.910156 C 8.148438 -8.714844 7.492188 -9.042969 6.320312 -9.042969 C 3.433594 -9.042969 -4.164062 -4.292969 -4.164062 -1.386719 C -4.164062 -0.492188 -3.507812 0.0898438 -2.503906 0.0898438 C -0.128906 0.0898438 5.097656 -3.726562 8.585938 -6.246094 C 8.84375 -6.429688 9.097656 -6.613281 9.335938 -6.796875 C 9.628906 -7.015625 9.753906 -6.886719 9.574219 -6.578125 C 8.75 -5.261719 7.984375 -3.78125 7.984375 -2.394531 C 7.984375 -0.695312 9.097656 0.238281 11.144531 0.238281 C 14.105469 0.238281 21.757812 -2.90625 26.378906 -6.210938 C 26.5625 -6.339844 26.671875 -6.539062 26.671875 -6.757812 C 26.671875 -7.105469 26.363281 -7.417969 26.015625 -7.417969 Z M 7.5625 -7.144531 C 2.976562 -3.816406 -0.75 -1.222656 -2.503906 -1.222656 C -2.722656 -1.222656 -2.851562 -1.316406 -2.851562 -1.535156 C -2.851562 -3.234375 3.597656 -7.726562 6.320312 -7.726562 C 7.070312 -7.726562 7.289062 -7.617188 7.5625 -7.144531 Z M 7.5625 -7.144531 "/></g></g><g style="fill:rgb(0%,0%,0%);fill-opacity:1;"><g transform="translate(251.601765, 195.162531)"><path style="stroke:none;" d="M 23.804688 -7.417969 C 23.675781 -7.417969 23.53125 -7.363281 23.421875 -7.289062 C 19.402344 -4.621094 13.792969 -3.691406 9.207031 -3.140625 C 11.289062 -4.804688 12.585938 -6.539062 12.585938 -7.726562 C 12.585938 -8.53125 11.984375 -9.042969 11.070312 -9.042969 C 8.019531 -9.042969 2.230469 -4.96875 -3.289062 1.078125 L -5.957031 4.21875 C -0.804688 -2.265625 3.25 -7.363281 7.820312 -13.007812 L 7.800781 -12.988281 C 7.890625 -13.082031 7.964844 -13.261719 7.964844 -13.410156 C 7.964844 -13.757812 7.65625 -14.066406 7.308594 -14.066406 C 7.105469 -14.066406 6.886719 -13.957031 6.796875 -13.8125 C -3.726562 -0.785156 -11.636719 9.371094 -17.390625 16.84375 C -27.386719 28.335938 -31.585938 33.980469 -29.667969 33.980469 C -28.773438 33.980469 -26.820312 31.3125 -21.136719 23.894531 L -18.597656 20.570312 C -17.941406 19.730469 -17.265625 18.835938 -16.550781 17.902344 C -12.75 13.554688 -8.054688 8.238281 -2.339844 1.992188 C 2.867188 -3.691406 8.441406 -7.765625 10.960938 -7.765625 C 11.179688 -7.765625 11.273438 -7.691406 11.273438 -7.527344 C 11.273438 -6.632812 9.171875 -4.511719 6.523438 -2.851562 C 2.867188 -2.8125 2.0625 -2.082031 2.0625 -1.332031 C 2.0625 -0.859375 2.464844 -0.566406 3.085938 -0.566406 C 3.964844 -0.566406 5.1875 -1.003906 6.960938 -1.570312 C 11.800781 -2.082031 19.128906 -2.851562 24.167969 -6.210938 C 24.351562 -6.339844 24.460938 -6.539062 24.460938 -6.757812 C 24.460938 -7.105469 24.152344 -7.417969 23.804688 -7.417969 Z M 23.804688 -7.417969 "/></g></g><g style="fill:rgb(0%,0%,0%);fill-opacity:1;"><g transform="translate(273.54211, 195.162531)"><path style="stroke:none;" d="M 19.75 -7.417969 C 19.621094 -7.417969 19.511719 -7.378906 19.417969 -7.308594 C 15.566406 -5.132812 9.902344 -5.40625 5.460938 -7.964844 C 5.460938 -7.964844 5.480469 -7.984375 5.5 -7.984375 C 5.570312 -8.019531 5.644531 -8.039062 5.71875 -8.054688 C 5.992188 -8.148438 6.175781 -8.402344 6.175781 -8.695312 C 6.175781 -9.042969 5.863281 -9.355469 5.515625 -9.355469 C 5.460938 -9.355469 5.371094 -9.335938 5.296875 -9.316406 C 4.878906 -9.171875 4.476562 -9.023438 4.109375 -8.84375 C 4.074219 -8.824219 4.039062 -8.824219 3.964844 -8.84375 C 3.527344 -8.953125 3.050781 -8.714844 2.921875 -8.277344 C 2.886719 -8.222656 2.867188 -8.203125 2.832031 -8.167969 C -0.183594 -6.359375 -2.265625 -3.527344 -2.265625 -1.222656 C -2.265625 0.0351562 -1.570312 0.875 -0.511719 0.875 C 2.136719 0.875 4.878906 -3.597656 4.421875 -7.035156 C 9.316406 -4.054688 15.710938 -3.691406 20.058594 -6.175781 C 20.277344 -6.304688 20.40625 -6.523438 20.40625 -6.757812 C 20.40625 -7.105469 20.097656 -7.417969 19.75 -7.417969 Z M -0.511719 -0.4375 C -0.804688 -0.4375 -0.949219 -0.675781 -0.949219 -1.222656 C -0.949219 -2.960938 0.710938 -5.242188 3.125 -6.8125 C 3.417969 -4.183594 1.277344 -0.4375 -0.511719 -0.4375 Z M -0.511719 -0.4375 "/></g></g><g style="fill:rgb(0%,0%,0%);fill-opacity:1;"><g transform="translate(291.426882, 195.162531)"><path style="stroke:none;" d="M 24.609375 -7.472656 C 24.460938 -7.472656 24.335938 -7.433594 24.222656 -7.34375 C 19.96875 -4.421875 12.277344 -1.132812 9.71875 -1.132812 C 8.402344 -1.132812 7.875 -1.515625 7.875 -2.449219 C 7.875 -4.019531 9.628906 -6.027344 10.851562 -7.398438 C 12.277344 -9.007812 12.386719 -9.847656 11.21875 -9.847656 C 10.667969 -9.847656 9.554688 -8.898438 6.90625 -6.742188 C 2.742188 -3.378906 0.402344 -1.789062 -0.476562 -1.789062 C -0.566406 -1.789062 -0.675781 -1.84375 -0.675781 -2.046875 C -0.675781 -3.03125 0.988281 -5.132812 3.726562 -7.617188 L 3.707031 -7.601562 C 3.855469 -7.691406 3.945312 -7.890625 3.945312 -8.09375 C 3.945312 -8.441406 3.636719 -8.75 3.289062 -8.75 C 3.125 -8.75 2.960938 -8.679688 2.851562 -8.566406 C -0.273438 -5.792969 -1.992188 -3.433594 -1.992188 -1.9375 C -1.992188 -1.042969 -1.425781 -0.476562 -0.546875 -0.476562 C 0.933594 -0.476562 5.152344 -3.691406 7.363281 -5.460938 C 7.636719 -5.679688 7.746094 -5.570312 7.546875 -5.242188 C 6.867188 -4.148438 6.558594 -3.324219 6.558594 -2.449219 C 6.558594 -0.75 7.671875 0.183594 9.71875 0.183594 C 12.679688 0.183594 20.789062 -3.398438 24.972656 -6.265625 C 25.15625 -6.394531 25.265625 -6.59375 25.265625 -6.8125 C 25.265625 -7.160156 24.957031 -7.472656 24.609375 -7.472656 Z M 24.609375 -7.472656 "/></g></g><g style="fill:rgb(0%,0%,0%);fill-opacity:1;"><g transform="translate(314.13449, 195.162531)"><path style="stroke:none;" d="M 1.058594 9.097656 C 6.121094 9.097656 20.535156 -0.238281 28.792969 -6.230469 C 28.957031 -6.339844 29.066406 -6.539062 29.066406 -6.757812 C 29.066406 -7.125 28.773438 -7.417969 28.40625 -7.417969 C 28.261719 -7.417969 28.132812 -7.378906 28.023438 -7.289062 C 19.785156 -1.332031 5.71875 7.78125 1.058594 7.78125 C 0.238281 7.78125 -0.0351562 7.527344 -0.0351562 6.757812 C -0.0351562 4.421875 4.09375 0.367188 8.148438 -3.636719 C 11.730469 -7.160156 15.292969 -10.667969 15.292969 -12.75 C 15.292969 -13.539062 14.578125 -14.160156 13.664062 -14.980469 C 13.390625 -15.199219 13.097656 -15.457031 12.824219 -15.730469 C 16.222656 -19.363281 18.230469 -22.160156 18.230469 -23.292969 C 18.230469 -24.023438 17.8125 -24.460938 17.101562 -24.460938 C 14.433594 -24.460938 8.605469 -19.984375 8.605469 -17.902344 C 8.605469 -17.191406 9.152344 -16.605469 10.832031 -15.492188 C 8.09375 -12.640625 4.75 -9.589844 1.480469 -7.289062 C 1.296875 -7.160156 1.1875 -6.960938 1.1875 -6.742188 C 1.1875 -6.375 1.480469 -6.082031 1.84375 -6.082031 C 1.992188 -6.082031 2.121094 -6.121094 2.230469 -6.210938 C 5.226562 -8.332031 8.859375 -11.636719 11.910156 -14.78125 C 13.410156 -13.773438 13.976562 -13.226562 13.976562 -12.75 C 13.976562 -11.234375 10.796875 -8.09375 7.214844 -4.566406 C 3.160156 -0.566406 -1.351562 3.871094 -1.351562 6.757812 C -1.351562 8.257812 -0.492188 9.097656 1.058594 9.097656 Z M 11.730469 -16.460938 C 10.558594 -17.246094 9.921875 -17.777344 9.921875 -17.902344 C 9.921875 -19.089844 14.558594 -22.652344 16.460938 -23.054688 C 16.699219 -23.09375 16.84375 -23 16.769531 -22.78125 C 16.277344 -21.59375 13.464844 -18.304688 11.730469 -16.460938 Z M 11.730469 -16.460938 "/></g></g><g style="fill:rgb(0%,0%,0%);fill-opacity:1;"><g transform="translate(187.497384, 237.201434)"><path style="stroke:none;" d=""/></g></g><g style="fill:rgb(0%,0%,0%);fill-opacity:1;"><g transform="translate(175.613446, 145.175938)"><path style="stroke:none;" d="M 4.820312 -7.050781 C 4.777344 -7.109375 4.6875 -7.117188 4.574219 -7.128906 C 4.492188 -7.128906 4.378906 -7.117188 4.253906 -7.117188 C 4.164062 -7.117188 4.050781 -7.152344 3.9375 -7.152344 C 3.835938 -7.164062 3.734375 -7.128906 3.621094 -7.128906 C 3.519531 -7.128906 3.417969 -7.140625 3.304688 -7.140625 C 3.203125 -7.140625 3.101562 -7.117188 2.988281 -7.117188 C 2.886719 -7.117188 2.785156 -7.164062 2.671875 -7.164062 C 2.570312 -7.164062 2.46875 -7.140625 2.355469 -7.140625 C 2.253906 -7.140625 2.152344 -7.164062 2.039062 -7.164062 C 1.933594 -7.164062 1.832031 -7.152344 1.730469 -7.152344 C 1.617188 -7.152344 1.515625 -7.152344 1.414062 -7.152344 C 1.300781 -7.152344 1.199219 -7.152344 1.097656 -7.152344 C 0.984375 -7.152344 0.882812 -7.164062 0.78125 -7.164062 C 0.65625 -7.175781 0.554688 -7.128906 0.476562 -7.128906 C 0.40625 -7.140625 0.328125 -7.164062 0.292969 -7.128906 C 0.191406 -7.050781 0.191406 -6.914062 0.203125 -6.824219 C 0.214844 -6.6875 0.160156 -6.554688 0.273438 -6.460938 C 0.351562 -6.394531 0.496094 -6.417969 0.621094 -6.40625 C 0.691406 -6.40625 0.804688 -6.40625 0.929688 -6.40625 C 1.019531 -6.40625 1.132812 -6.394531 1.234375 -6.394531 C 1.335938 -6.394531 1.449219 -6.394531 1.550781 -6.394531 C 1.652344 -6.382812 1.765625 -6.347656 1.855469 -6.347656 C 2.039062 -6.347656 2.070312 -6.484375 2.171875 -6.371094 C 2.273438 -6.257812 2.183594 -6.226562 2.183594 -6.054688 C 2.183594 -5.964844 2.152344 -5.851562 2.152344 -5.75 C 2.152344 -5.683594 2.183594 -5.578125 2.183594 -5.457031 C 2.171875 -5.363281 2.160156 -5.261719 2.160156 -5.148438 C 2.160156 -5.058594 2.152344 -4.957031 2.152344 -4.84375 C 2.152344 -4.753906 2.160156 -4.652344 2.160156 -4.539062 C 2.160156 -4.449219 2.171875 -4.347656 2.171875 -4.234375 C 2.171875 -4.140625 2.152344 -4.039062 2.152344 -3.9375 C 2.152344 -3.835938 2.152344 -3.734375 2.152344 -3.632812 C 2.152344 -3.53125 2.171875 -3.429688 2.171875 -3.328125 C 2.171875 -3.226562 2.171875 -3.125 2.171875 -3.023438 C 2.171875 -2.921875 2.152344 -2.816406 2.152344 -2.714844 C 2.152344 -2.613281 2.160156 -2.511719 2.160156 -2.421875 C 2.160156 -2.320312 2.160156 -2.21875 2.160156 -2.117188 C 2.160156 -2.015625 2.171875 -1.914062 2.171875 -1.8125 C 2.171875 -1.710938 2.160156 -1.605469 2.160156 -1.503906 C 2.160156 -1.402344 2.140625 -1.300781 2.140625 -1.210938 C 2.140625 -1.097656 2.160156 -0.996094 2.160156 -0.90625 C 2.160156 -0.792969 2.171875 -0.691406 2.183594 -0.601562 C 2.183594 -0.476562 2.183594 -0.375 2.183594 -0.304688 C 2.183594 -0.125 2.21875 -0.0664062 2.273438 -0.0351562 C 2.332031 0.0117188 2.421875 0.0351562 2.570312 0.0234375 C 2.714844 0.0234375 2.796875 -0.0234375 2.839844 -0.0546875 C 2.910156 -0.101562 2.941406 -0.167969 2.929688 -0.316406 C 2.929688 -0.417969 2.921875 -0.519531 2.921875 -0.621094 C 2.921875 -0.722656 2.929688 -0.835938 2.929688 -0.9375 C 2.929688 -1.042969 2.910156 -1.15625 2.910156 -1.257812 C 2.910156 -1.359375 2.910156 -1.460938 2.910156 -1.5625 C 2.910156 -1.675781 2.921875 -1.777344 2.921875 -1.878906 C 2.921875 -1.933594 2.910156 -2.039062 2.910156 -2.171875 C 2.910156 -2.261719 2.921875 -2.367188 2.910156 -2.480469 C 2.910156 -2.570312 2.921875 -2.671875 2.921875 -2.785156 C 2.921875 -2.875 2.898438 -2.976562 2.898438 -3.089844 C 2.898438 -3.179688 2.910156 -3.28125 2.910156 -3.382812 C 2.910156 -3.484375 2.886719 -3.585938 2.886719 -3.691406 C 2.886719 -3.792969 2.910156 -3.894531 2.910156 -3.996094 C 2.910156 -4.097656 2.910156 -4.199219 2.910156 -4.300781 C 2.910156 -4.402344 2.886719 -4.492188 2.886719 -4.59375 C 2.886719 -4.695312 2.910156 -4.800781 2.910156 -4.902344 C 2.910156 -5.003906 2.910156 -5.105469 2.910156 -5.195312 C 2.910156 -5.308594 2.875 -5.398438 2.875 -5.5 C 2.875 -5.601562 2.898438 -5.703125 2.898438 -5.792969 C 2.886719 -5.90625 2.898438 -6.011719 2.898438 -6.101562 C 2.898438 -6.226562 2.875 -6.347656 2.875 -6.417969 C 2.941406 -6.417969 3.078125 -6.40625 3.214844 -6.40625 C 3.316406 -6.40625 3.429688 -6.382812 3.554688 -6.382812 C 3.667969 -6.382812 3.78125 -6.417969 3.894531 -6.417969 C 4.007812 -6.417969 4.121094 -6.40625 4.222656 -6.40625 C 4.378906 -6.40625 4.503906 -6.382812 4.5625 -6.382812 C 4.695312 -6.382812 4.777344 -6.441406 4.808594 -6.507812 C 4.855469 -6.574219 4.878906 -6.667969 4.878906 -6.800781 C 4.878906 -6.914062 4.855469 -7.007812 4.820312 -7.050781 Z M 4.820312 -7.050781 "/></g></g><g style="fill:rgb(0%,0%,0%);fill-opacity:1;"><g transform="translate(183.739867, 145.175938)"><path style="stroke:none;" d="M 5.875 -4.695312 C 5.875 -4.800781 5.839844 -4.902344 5.839844 -5.003906 C 5.839844 -5.105469 5.851562 -5.207031 5.851562 -5.308594 C 5.851562 -5.410156 5.828125 -5.511719 5.828125 -5.613281 C 5.828125 -5.714844 5.875 -5.816406 5.875 -5.917969 C 5.875 -6.019531 5.875 -6.125 5.875 -6.214844 C 5.875 -6.339844 5.875 -6.441406 5.875 -6.519531 C 5.875 -6.621094 5.863281 -6.769531 5.851562 -6.871094 C 5.828125 -6.984375 5.773438 -7.039062 5.691406 -7.074219 C 5.613281 -7.109375 5.523438 -7.109375 5.421875 -7.085938 C 5.296875 -7.0625 5.148438 -7.050781 5.117188 -6.925781 C 5.082031 -6.859375 5.105469 -6.746094 5.105469 -6.621094 C 5.117188 -6.519531 5.136719 -6.40625 5.136719 -6.328125 C 5.136719 -6.269531 5.105469 -6.15625 5.105469 -6.019531 C 5.105469 -5.929688 5.148438 -5.828125 5.148438 -5.726562 C 5.148438 -5.625 5.136719 -5.523438 5.136719 -5.421875 C 5.136719 -5.320312 5.117188 -5.21875 5.117188 -5.117188 C 5.117188 -5.015625 5.148438 -4.910156 5.148438 -4.820312 C 5.148438 -4.707031 5.105469 -4.617188 5.105469 -4.515625 C 5.105469 -4.402344 5.117188 -4.3125 5.117188 -4.222656 C 5.117188 -4.085938 5.136719 -3.972656 5.136719 -3.90625 C 5.09375 -3.90625 4.980469 -3.917969 4.84375 -3.90625 C 4.765625 -3.90625 4.664062 -3.882812 4.5625 -3.882812 C 4.46875 -3.882812 4.378906 -3.894531 4.289062 -3.894531 C 4.1875 -3.894531 4.097656 -3.917969 4.007812 -3.917969 C 3.871094 -3.917969 3.757812 -3.90625 3.734375 -3.90625 C 3.667969 -3.894531 3.566406 -3.90625 3.441406 -3.894531 C 3.351562 -3.894531 3.25 -3.917969 3.136719 -3.90625 C 3.042969 -3.90625 2.941406 -3.871094 2.839844 -3.871094 C 2.738281 -3.871094 2.636719 -3.871094 2.535156 -3.859375 C 2.433594 -3.859375 2.332031 -3.871094 2.242188 -3.871094 C 2.128906 -3.871094 2.027344 -3.871094 1.945312 -3.871094 C 1.820312 -3.871094 1.71875 -3.882812 1.640625 -3.882812 C 1.640625 -3.9375 1.628906 -4.039062 1.628906 -4.175781 C 1.628906 -4.265625 1.664062 -4.367188 1.664062 -4.46875 C 1.664062 -4.574219 1.617188 -4.664062 1.617188 -4.777344 C 1.617188 -4.867188 1.628906 -4.96875 1.628906 -5.070312 C 1.628906 -5.171875 1.605469 -5.273438 1.605469 -5.363281 C 1.605469 -5.476562 1.640625 -5.570312 1.640625 -5.660156 C 1.640625 -5.792969 1.605469 -5.898438 1.605469 -5.953125 C 1.597656 -6.042969 1.605469 -6.15625 1.605469 -6.257812 C 1.605469 -6.359375 1.597656 -6.460938 1.585938 -6.566406 C 1.585938 -6.675781 1.585938 -6.78125 1.574219 -6.871094 C 1.574219 -6.984375 1.539062 -7.039062 1.472656 -7.0625 C 1.414062 -7.085938 1.347656 -7.109375 1.246094 -7.109375 C 1.144531 -7.117188 1.074219 -7.085938 1.007812 -7.0625 C 0.9375 -7.039062 0.882812 -7.015625 0.871094 -6.902344 C 0.859375 -6.824219 0.894531 -6.609375 0.894531 -6.53125 C 0.894531 -6.453125 0.871094 -6.339844 0.871094 -6.226562 C 0.871094 -6.125 0.882812 -6.019531 0.882812 -5.90625 C 0.882812 -5.804688 0.894531 -5.703125 0.894531 -5.589844 C 0.894531 -5.488281 0.894531 -5.386719 0.894531 -5.285156 C 0.894531 -5.171875 0.894531 -5.070312 0.894531 -4.96875 C 0.894531 -4.867188 0.871094 -4.753906 0.871094 -4.652344 C 0.871094 -4.550781 0.90625 -4.449219 0.90625 -4.335938 C 0.90625 -4.234375 0.90625 -4.132812 0.90625 -4.019531 C 0.90625 -3.917969 0.871094 -3.8125 0.871094 -3.710938 C 0.871094 -3.597656 0.90625 -3.496094 0.90625 -3.394531 C 0.90625 -3.292969 0.894531 -3.179688 0.894531 -3.078125 C 0.894531 -2.976562 0.882812 -2.875 0.882812 -2.773438 C 0.882812 -2.660156 0.894531 -2.558594 0.894531 -2.457031 C 0.894531 -2.34375 0.917969 -2.242188 0.917969 -2.140625 C 0.917969 -2.039062 0.882812 -1.925781 0.882812 -1.820312 C 0.882812 -1.71875 0.894531 -1.617188 0.894531 -1.515625 C 0.894531 -1.402344 0.917969 -1.300781 0.917969 -1.199219 C 0.917969 -1.085938 0.917969 -0.984375 0.917969 -0.882812 C 0.917969 -0.769531 0.894531 -0.65625 0.894531 -0.578125 C 0.894531 -0.464844 0.90625 -0.363281 0.917969 -0.28125 C 0.929688 -0.148438 0.960938 -0.0546875 1.007812 -0.0117188 C 1.074219 0.0664062 1.15625 0.0546875 1.277344 0.046875 C 1.402344 0.046875 1.484375 0.0351562 1.527344 -0.0234375 C 1.585938 -0.078125 1.628906 -0.167969 1.628906 -0.273438 C 1.640625 -0.363281 1.617188 -0.464844 1.617188 -0.542969 C 1.617188 -0.609375 1.617188 -0.722656 1.617188 -0.859375 C 1.617188 -0.960938 1.617188 -1.074219 1.617188 -1.1875 C 1.617188 -1.289062 1.605469 -1.402344 1.605469 -1.503906 C 1.605469 -1.617188 1.652344 -1.71875 1.652344 -1.832031 C 1.652344 -1.945312 1.617188 -2.046875 1.617188 -2.152344 C 1.617188 -2.261719 1.640625 -2.375 1.640625 -2.480469 C 1.640625 -2.59375 1.628906 -2.703125 1.640625 -2.796875 C 1.640625 -2.929688 1.640625 -3.042969 1.652344 -3.113281 C 1.71875 -3.113281 1.820312 -3.125 1.957031 -3.125 C 2.046875 -3.125 2.160156 -3.125 2.273438 -3.125 C 2.375 -3.125 2.488281 -3.101562 2.59375 -3.101562 C 2.703125 -3.101562 2.808594 -3.113281 2.921875 -3.113281 C 3.023438 -3.113281 3.125 -3.101562 3.238281 -3.101562 C 3.339844 -3.101562 3.453125 -3.101562 3.554688 -3.101562 C 3.667969 -3.101562 3.769531 -3.113281 3.882812 -3.113281 C 3.984375 -3.113281 4.097656 -3.089844 4.199219 -3.089844 C 4.3125 -3.089844 4.414062 -3.125 4.515625 -3.125 C 4.628906 -3.125 4.730469 -3.089844 4.832031 -3.089844 C 4.96875 -3.089844 5.070312 -3.089844 5.136719 -3.089844 C 5.136719 -3.035156 5.160156 -2.941406 5.171875 -2.816406 C 5.171875 -2.726562 5.148438 -2.625 5.148438 -2.523438 C 5.148438 -2.433594 5.148438 -2.332031 5.148438 -2.230469 C 5.148438 -2.140625 5.183594 -2.039062 5.183594 -1.945312 C 5.183594 -1.84375 5.160156 -1.753906 5.160156 -1.652344 C 5.160156 -1.550781 5.148438 -1.460938 5.148438 -1.371094 C 5.160156 -1.269531 5.195312 -1.164062 5.195312 -1.085938 C 5.195312 -0.949219 5.160156 -0.847656 5.160156 -0.792969 C 5.160156 -0.703125 5.195312 -0.609375 5.195312 -0.519531 C 5.207031 -0.429688 5.195312 -0.339844 5.207031 -0.25 C 5.207031 -0.136719 5.230469 -0.0664062 5.273438 -0.0234375 C 5.332031 0.0234375 5.398438 0.0546875 5.5 0.0546875 C 5.601562 0.0664062 5.671875 0.046875 5.726562 0 C 5.785156 -0.0351562 5.839844 -0.0898438 5.839844 -0.203125 C 5.851562 -0.28125 5.851562 -0.363281 5.851562 -0.441406 C 5.851562 -0.53125 5.828125 -0.632812 5.828125 -0.746094 C 5.828125 -0.835938 5.851562 -0.9375 5.851562 -1.050781 C 5.851562 -1.144531 5.839844 -1.246094 5.839844 -1.359375 C 5.839844 -1.449219 5.828125 -1.550781 5.828125 -1.652344 C 5.828125 -1.753906 5.828125 -1.855469 5.828125 -1.957031 C 5.828125 -2.058594 5.828125 -2.160156 5.828125 -2.261719 C 5.828125 -2.367188 5.851562 -2.46875 5.851562 -2.570312 C 5.851562 -2.671875 5.863281 -2.773438 5.863281 -2.875 C 5.863281 -2.976562 5.851562 -3.078125 5.851562 -3.179688 C 5.851562 -3.28125 5.828125 -3.382812 5.828125 -3.484375 C 5.828125 -3.585938 5.851562 -3.691406 5.851562 -3.792969 C 5.851562 -3.894531 5.828125 -3.996094 5.828125 -4.097656 C 5.828125 -4.199219 5.875 -4.300781 5.875 -4.390625 C 5.875 -4.503906 5.875 -4.59375 5.875 -4.695312 Z M 5.875 -4.695312 "/></g></g><g style="fill:rgb(0%,0%,0%);fill-opacity:1;"><g transform="translate(193.530057, 145.175938)"><path style="stroke:none;" d="M 5.003906 -0.757812 C 4.890625 -0.769531 4.777344 -0.746094 4.675781 -0.746094 C 4.5625 -0.746094 4.449219 -0.78125 4.335938 -0.769531 C 4.222656 -0.769531 4.109375 -0.757812 3.996094 -0.769531 C 3.949219 -0.769531 3.824219 -0.746094 3.679688 -0.746094 C 3.585938 -0.734375 3.476562 -0.734375 3.363281 -0.734375 C 3.257812 -0.734375 3.144531 -0.757812 3.035156 -0.757812 C 2.929688 -0.746094 2.816406 -0.746094 2.714844 -0.746094 C 2.601562 -0.734375 2.5 -0.734375 2.398438 -0.734375 C 2.273438 -0.734375 2.171875 -0.714844 2.070312 -0.714844 C 1.945312 -0.714844 1.832031 -0.722656 1.753906 -0.722656 C 1.664062 -0.714844 1.605469 -0.792969 1.597656 -0.882812 C 1.597656 -0.949219 1.574219 -1.042969 1.574219 -1.132812 C 1.5625 -1.210938 1.550781 -1.300781 1.5625 -1.378906 C 1.5625 -1.402344 1.5625 -1.515625 1.5625 -1.675781 C 1.5625 -1.765625 1.550781 -1.867188 1.550781 -1.980469 C 1.550781 -2.070312 1.597656 -2.171875 1.597656 -2.273438 C 1.597656 -2.375 1.5625 -2.480469 1.5625 -2.582031 C 1.574219 -2.683594 1.597656 -2.785156 1.597656 -2.875 C 1.605469 -3.035156 1.597656 -3.136719 1.605469 -3.167969 C 1.675781 -3.167969 1.789062 -3.167969 1.925781 -3.15625 C 2.027344 -3.15625 2.128906 -3.179688 2.253906 -3.179688 C 2.355469 -3.179688 2.457031 -3.167969 2.570312 -3.167969 C 2.671875 -3.167969 2.785156 -3.15625 2.898438 -3.15625 C 3 -3.15625 3.113281 -3.167969 3.214844 -3.167969 C 3.328125 -3.167969 3.429688 -3.15625 3.53125 -3.15625 C 3.644531 -3.15625 3.757812 -3.15625 3.847656 -3.15625 C 3.996094 -3.15625 4.109375 -3.179688 4.175781 -3.179688 C 4.335938 -3.179688 4.449219 -3.179688 4.515625 -3.203125 C 4.617188 -3.25 4.628906 -3.339844 4.617188 -3.496094 C 4.605469 -3.585938 4.605469 -3.710938 4.582031 -3.847656 C 4.480469 -3.859375 4.359375 -3.871094 4.253906 -3.871094 C 4.140625 -3.882812 4.027344 -3.847656 3.925781 -3.859375 C 3.8125 -3.859375 3.699219 -3.894531 3.597656 -3.90625 C 3.554688 -3.917969 3.441406 -3.917969 3.28125 -3.917969 C 3.191406 -3.917969 3.089844 -3.894531 2.976562 -3.894531 C 2.875 -3.894531 2.773438 -3.917969 2.660156 -3.917969 C 2.558594 -3.917969 2.457031 -3.925781 2.355469 -3.925781 C 2.242188 -3.925781 2.140625 -3.894531 2.039062 -3.894531 C 1.914062 -3.894531 1.800781 -3.925781 1.730469 -3.925781 C 1.664062 -3.925781 1.597656 -3.960938 1.597656 -4.027344 C 1.597656 -4.097656 1.597656 -4.199219 1.597656 -4.3125 C 1.597656 -4.402344 1.585938 -4.503906 1.585938 -4.605469 C 1.585938 -4.707031 1.597656 -4.808594 1.597656 -4.902344 C 1.597656 -5.023438 1.585938 -5.136719 1.585938 -5.183594 C 1.585938 -5.230469 1.605469 -5.34375 1.617188 -5.476562 C 1.617188 -5.570312 1.617188 -5.671875 1.628906 -5.785156 C 1.628906 -5.886719 1.617188 -5.988281 1.617188 -6.078125 C 1.628906 -6.203125 1.652344 -6.304688 1.664062 -6.359375 C 1.730469 -6.359375 1.832031 -6.371094 1.957031 -6.371094 C 2.046875 -6.371094 2.152344 -6.394531 2.261719 -6.394531 C 2.367188 -6.394531 2.46875 -6.359375 2.570312 -6.359375 C 2.671875 -6.359375 2.773438 -6.371094 2.875 -6.371094 C 2.976562 -6.371094 3.078125 -6.371094 3.179688 -6.371094 C 3.28125 -6.371094 3.382812 -6.371094 3.484375 -6.371094 C 3.585938 -6.371094 3.691406 -6.382812 3.792969 -6.382812 C 3.894531 -6.382812 3.996094 -6.382812 4.097656 -6.382812 C 4.199219 -6.382812 4.300781 -6.394531 4.402344 -6.394531 C 4.503906 -6.394531 4.605469 -6.359375 4.695312 -6.359375 C 4.832031 -6.359375 4.933594 -6.371094 5.003906 -6.371094 C 5.136719 -6.371094 5.242188 -6.359375 5.308594 -6.40625 C 5.375 -6.453125 5.410156 -6.542969 5.421875 -6.6875 C 5.421875 -6.789062 5.410156 -6.871094 5.398438 -6.949219 C 5.386719 -7.027344 5.363281 -7.074219 5.25 -7.109375 C 5.183594 -7.117188 5.105469 -7.140625 4.992188 -7.140625 C 4.902344 -7.140625 4.800781 -7.128906 4.695312 -7.128906 C 4.605469 -7.128906 4.503906 -7.140625 4.402344 -7.128906 C 4.300781 -7.128906 4.210938 -7.117188 4.109375 -7.117188 C 4.039062 -7.117188 3.925781 -7.117188 3.792969 -7.117188 C 3.699219 -7.117188 3.585938 -7.140625 3.476562 -7.140625 C 3.371094 -7.140625 3.269531 -7.117188 3.15625 -7.117188 C 3.054688 -7.117188 2.941406 -7.117188 2.828125 -7.117188 C 2.726562 -7.128906 2.625 -7.152344 2.511719 -7.152344 C 2.410156 -7.152344 2.296875 -7.140625 2.195312 -7.140625 C 2.09375 -7.152344 1.980469 -7.128906 1.878906 -7.140625 C 1.765625 -7.140625 1.664062 -7.164062 1.5625 -7.164062 C 1.449219 -7.164062 1.335938 -7.140625 1.246094 -7.140625 C 1.109375 -7.140625 1.019531 -7.140625 0.9375 -7.140625 C 0.9375 -7.050781 0.929688 -6.960938 0.917969 -6.835938 C 0.917969 -6.746094 0.917969 -6.644531 0.917969 -6.53125 C 0.917969 -6.429688 0.929688 -6.328125 0.929688 -6.226562 C 0.929688 -6.125 0.894531 -6.019531 0.894531 -5.90625 C 0.894531 -5.804688 0.929688 -5.703125 0.929688 -5.601562 C 0.929688 -5.5 0.90625 -5.398438 0.90625 -5.285156 C 0.90625 -5.183594 0.882812 -5.082031 0.882812 -4.980469 C 0.882812 -4.878906 0.90625 -4.777344 0.90625 -4.664062 C 0.90625 -4.5625 0.894531 -4.460938 0.894531 -4.359375 C 0.894531 -4.253906 0.894531 -4.140625 0.894531 -4.039062 C 0.894531 -3.9375 0.90625 -3.835938 0.90625 -3.734375 C 0.90625 -3.632812 0.90625 -3.519531 0.90625 -3.417969 C 0.90625 -3.316406 0.871094 -3.214844 0.871094 -3.113281 C 0.871094 -3.011719 0.90625 -2.910156 0.90625 -2.808594 C 0.90625 -2.695312 0.882812 -2.59375 0.882812 -2.488281 C 0.882812 -2.386719 0.90625 -2.285156 0.90625 -2.183594 C 0.90625 -2.082031 0.871094 -1.96875 0.871094 -1.878906 C 0.859375 -1.765625 0.894531 -1.664062 0.894531 -1.5625 C 0.894531 -1.460938 0.871094 -1.359375 0.871094 -1.257812 C 0.871094 -1.144531 0.882812 -1.042969 0.882812 -0.9375 C 0.882812 -0.835938 0.871094 -0.722656 0.871094 -0.632812 C 0.871094 -0.519531 0.882812 -0.417969 0.882812 -0.328125 C 0.882812 -0.226562 1.0625 -0.0234375 1.175781 -0.0117188 C 1.257812 -0.0117188 1.359375 -0.046875 1.472656 -0.046875 C 1.5625 -0.0351562 1.664062 -0.0117188 1.777344 -0.0117188 C 1.878906 -0.0117188 1.980469 -0.0234375 2.082031 -0.0234375 C 2.183594 -0.0234375 2.285156 0 2.386719 0 C 2.488281 0 2.59375 -0.0117188 2.695312 -0.0117188 C 2.796875 -0.0117188 2.898438 -0.0234375 3 -0.0234375 C 3.101562 -0.0234375 3.203125 -0.0234375 3.304688 -0.0234375 C 3.40625 -0.0234375 3.507812 -0.0234375 3.609375 -0.0234375 C 3.710938 -0.0234375 3.8125 0 3.90625 0 C 4.019531 0 4.121094 -0.0351562 4.210938 -0.046875 C 4.324219 -0.046875 4.414062 -0.046875 4.515625 -0.046875 C 4.617188 -0.046875 4.71875 -0.0117188 4.820312 -0.0117188 C 4.933594 -0.0117188 5.035156 -0.046875 5.117188 -0.046875 C 5.261719 -0.0546875 5.332031 -0.125 5.351562 -0.226562 C 5.363281 -0.316406 5.34375 -0.441406 5.273438 -0.542969 C 5.207031 -0.644531 5.136719 -0.746094 5.003906 -0.757812 Z M 5.003906 -0.757812 "/></g></g></g></svg>